<svg fill="none" height="244" viewBox="0 0 1232 244" width="1232" xmlns="http://www.w3.org/2000/svg" xmlns:xlink="http://www.w3.org/1999/xlink"><clipPath id="a"><path d="m0 0h1232v244h-1232z"/></clipPath><g clip-path="url(#a)" fill="#9051d4"><path d="m1145.23 200.892c-17.9 0-32.99-2.531-45.28-7.593-12.12-5.242-21.34-12.564-27.66-21.965-6.33-9.581-9.58-20.699-9.77-33.354h31.19c.18 8.678 2.44 15.909 6.78 21.694s10.3 10.124 17.9 13.016c7.77 2.893 16.81 4.339 27.11 4.339 11.93 0 21.79-1.446 29.56-4.339 7.96-2.892 13.83-7.05 17.63-12.474 3.97-5.423 5.96-11.66 5.96-18.71 0-5.966-1.08-10.938-3.25-14.915-1.99-4.158-5.06-7.502-9.22-10.033-4.16-2.712-9.13-4.7-14.92-5.966-5.78-1.265-12.38-1.898-19.79-1.898h-26.85v-21.4225h24.68c10.85 0 19.52-1.3558 26.03-4.0675 6.69-2.7117 11.57-6.4177 14.65-11.118 3.25-4.8811 4.88-10.4853 4.88-16.8126 0-7.0504-2.08-12.8354-6.24-17.3549-3.98-4.7003-9.58-8.1351-16.81-10.3045-7.05-2.1693-15.46-3.254-25.22-3.254s-18.35 1.5366-25.76 4.6099c-7.42 2.8925-13.2 7.2312-17.36 13.0162-4.16 5.6042-6.51 12.5642-7.05 20.8801h-30.37c.18-13.3777 3.71-24.6765 10.58-33.8963 7.05-9.2198 16.63-16.1798 28.74-20.88012 12.29-4.88107 26.39-7.321602 42.3-7.321602 11.93 0 22.69 1.084682 32.27 3.254052 9.76 1.98858 18.17 5.15223 25.22 9.49097 7.05 4.1579 12.38 9.491 16 15.999 3.8 6.3274 5.69 13.8297 5.69 22.5072 0 7.7735-1.71 14.7336-5.15 20.8801-3.25 6.1465-7.95 11.2084-14.1 15.1856-6.15 3.9771-13.29 6.6888-21.42 8.1351v1.627c9.04.9039 16.9 3.3448 23.59 7.3218 6.69 3.796 11.84 9.039 15.46 15.728 3.79 6.508 5.69 14.281 5.69 23.32 0 11.57-3.43 21.604-10.3 30.1-6.87 8.497-16.63 15.095-29.29 19.796-12.65 4.519-28.02 6.779-46.1 6.779z"/><path d="m1176.15 411.072v-47.183h-116.34v-22.779l107.66-125.552h40.4v123.383h30.37l-.27 24.948h-30.1v47.183zm-82.44-72.131h82.44v-94.639z"/></g></svg>